<svg xmlns="http://www.w3.org/2000/svg" width="1920" height="1080" viewBox="0 0 1920 1080"><title>Z1.1 · Statische Entwurfsstudie</title><metadata>{}</metadata><defs><style></style></defs><g id="background-s1" transform="scale(1.0 1.0)"><rect x="0" y="0" width="1920" height="1080" rx="0" fill="#dccba9" stroke="none" stroke-width="1" /><path d="M0 580 Q380 310 920 570 T1920 400 V1080 H0 Z" fill="#adb597" stroke="none" stroke-width="2" stroke-linecap="round" stroke-linejoin="round" /><path d="M0 830 Q400 650 860 820 T1920 680 V1080 H0 Z" fill="#77856e" stroke="none" stroke-width="2" stroke-linecap="round" stroke-linejoin="round" /><path d="M1430 850 L1460 705 Q1658.0 645 1810 690 L1840 850 Z" fill="#c6b792" stroke="#596858" stroke-width="3" stroke-linecap="round" stroke-linejoin="round" /><path d="M1470 740 Q1658.0 710 1800 730" fill="none" stroke="#968866" stroke-width="2" stroke-linecap="round" stroke-linejoin="round" /><path d="M1580 690 L1610 585 Q1814.0 525 1970 570 L2000 690 Z" fill="#c6b792" stroke="#596858" stroke-width="3" stroke-linecap="round" stroke-linejoin="round" /><path d="M1620 620 Q1814.0 590 1960 610" fill="none" stroke="#968866" stroke-width="2" stroke-linecap="round" stroke-linejoin="round" /><path d="M-70 1010 L-40 825 Q110.0 765 230 810 L260 1010 Z" fill="#c6b792" stroke="#596858" stroke-width="3" stroke-linecap="round" stroke-linejoin="round" /><path d="M-30 860 Q110.0 830 220 850" fill="none" stroke="#968866" stroke-width="2" stroke-linecap="round" stroke-linejoin="round" /><path d="M170 1025 Q40 820 75 550" fill="none" stroke="#3e5147" stroke-width="3" stroke-linecap="round" stroke-linejoin="round" /><path d="M75 592 Q45 560 49 553 Q79 563 75 592" fill="#e3d6ad" stroke="#3e5147" stroke-width="2" stroke-linecap="round" stroke-linejoin="round" /><path d="M75 619 Q45 587 49 580 Q79 590 75 619" fill="#e3d6ad" stroke="#3e5147" stroke-width="2" stroke-linecap="round" stroke-linejoin="round" /><path d="M75 646 Q45 614 49 607 Q79 617 75 646" fill="#e3d6ad" stroke="#3e5147" stroke-width="2" stroke-linecap="round" stroke-linejoin="round" /><path d="M75 673 Q45 641 49 634 Q79 644 75 673" fill="#e3d6ad" stroke="#3e5147" stroke-width="2" stroke-linecap="round" stroke-linejoin="round" /><path d="M170 1025 Q56 820 91 565" fill="none" stroke="#3e5147" stroke-width="3" stroke-linecap="round" stroke-linejoin="round" /><path d="M91 607 Q61 575 65 568 Q95 578 91 607" fill="#e3d6ad" stroke="#3e5147" stroke-width="2" stroke-linecap="round" stroke-linejoin="round" /><path d="M91 634 Q61 602 65 595 Q95 605 91 634" fill="#e3d6ad" stroke="#3e5147" stroke-width="2" stroke-linecap="round" stroke-linejoin="round" /><path d="M91 661 Q61 629 65 622 Q95 632 91 661" fill="#e3d6ad" stroke="#3e5147" stroke-width="2" stroke-linecap="round" stroke-linejoin="round" /><path d="M91 688 Q61 656 65 649 Q95 659 91 688" fill="#e3d6ad" stroke="#3e5147" stroke-width="2" stroke-linecap="round" stroke-linejoin="round" /><path d="M170 1025 Q72 820 107 580" fill="none" stroke="#3e5147" stroke-width="3" stroke-linecap="round" stroke-linejoin="round" /><path d="M107 622 Q77 590 81 583 Q111 593 107 622" fill="#e3d6ad" stroke="#3e5147" stroke-width="2" stroke-linecap="round" stroke-linejoin="round" /><path d="M107 649 Q77 617 81 610 Q111 620 107 649" fill="#e3d6ad" stroke="#3e5147" stroke-width="2" stroke-linecap="round" stroke-linejoin="round" /><path d="M107 676 Q77 644 81 637 Q111 647 107 676" fill="#e3d6ad" stroke="#3e5147" stroke-width="2" stroke-linecap="round" stroke-linejoin="round" /><path d="M107 703 Q77 671 81 664 Q111 674 107 703" fill="#e3d6ad" stroke="#3e5147" stroke-width="2" stroke-linecap="round" stroke-linejoin="round" /><path d="M170 1025 Q88 820 123 595" fill="none" stroke="#3e5147" stroke-width="3" stroke-linecap="round" stroke-linejoin="round" /><path d="M123 637 Q93 605 97 598 Q127 608 123 637" fill="#e3d6ad" stroke="#3e5147" stroke-width="2" stroke-linecap="round" stroke-linejoin="round" /><path d="M123 664 Q93 632 97 625 Q127 635 123 664" fill="#e3d6ad" stroke="#3e5147" stroke-width="2" stroke-linecap="round" stroke-linejoin="round" /><path d="M123 691 Q93 659 97 652 Q127 662 123 691" fill="#e3d6ad" stroke="#3e5147" stroke-width="2" stroke-linecap="round" stroke-linejoin="round" /><path d="M123 718 Q93 686 97 679 Q127 689 123 718" fill="#e3d6ad" stroke="#3e5147" stroke-width="2" stroke-linecap="round" stroke-linejoin="round" /><path d="M170 1025 Q104 820 139 610" fill="none" stroke="#3e5147" stroke-width="3" stroke-linecap="round" stroke-linejoin="round" /><path d="M139 652 Q109 620 113 613 Q143 623 139 652" fill="#e3d6ad" stroke="#3e5147" stroke-width="2" stroke-linecap="round" stroke-linejoin="round" /><path d="M139 679 Q109 647 113 640 Q143 650 139 679" fill="#e3d6ad" stroke="#3e5147" stroke-width="2" stroke-linecap="round" stroke-linejoin="round" /><path d="M139 706 Q109 674 113 667 Q143 677 139 706" fill="#e3d6ad" stroke="#3e5147" stroke-width="2" stroke-linecap="round" stroke-linejoin="round" /><path d="M139 733 Q109 701 113 694 Q143 704 139 733" fill="#e3d6ad" stroke="#3e5147" stroke-width="2" stroke-linecap="round" stroke-linejoin="round" /><path d="M170 1025 Q120 820 155 625" fill="none" stroke="#3e5147" stroke-width="3" stroke-linecap="round" stroke-linejoin="round" /><path d="M155 667 Q125 635 129 628 Q159 638 155 667" fill="#e3d6ad" stroke="#3e5147" stroke-width="2" stroke-linecap="round" stroke-linejoin="round" /><path d="M155 694 Q125 662 129 655 Q159 665 155 694" fill="#e3d6ad" stroke="#3e5147" stroke-width="2" stroke-linecap="round" stroke-linejoin="round" /><path d="M155 721 Q125 689 129 682 Q159 692 155 721" fill="#e3d6ad" stroke="#3e5147" stroke-width="2" stroke-linecap="round" stroke-linejoin="round" /><path d="M155 748 Q125 716 129 709 Q159 719 155 748" fill="#e3d6ad" stroke="#3e5147" stroke-width="2" stroke-linecap="round" stroke-linejoin="round" /><path d="M170 1025 Q136 820 171 640" fill="none" stroke="#3e5147" stroke-width="3" stroke-linecap="round" stroke-linejoin="round" /><path d="M171 682 Q141 650 145 643 Q175 653 171 682" fill="#e3d6ad" stroke="#3e5147" stroke-width="2" stroke-linecap="round" stroke-linejoin="round" /><path d="M171 709 Q141 677 145 670 Q175 680 171 709" fill="#e3d6ad" stroke="#3e5147" stroke-width="2" stroke-linecap="round" stroke-linejoin="round" /><path d="M171 736 Q141 704 145 697 Q175 707 171 736" fill="#e3d6ad" stroke="#3e5147" stroke-width="2" stroke-linecap="round" stroke-linejoin="round" /><path d="M171 763 Q141 731 145 724 Q175 734 171 763" fill="#e3d6ad" stroke="#3e5147" stroke-width="2" stroke-linecap="round" stroke-linejoin="round" /><path d="M170 1025 Q152 820 187 655" fill="none" stroke="#3e5147" stroke-width="3" stroke-linecap="round" stroke-linejoin="round" /><path d="M187 697 Q157 665 161 658 Q191 668 187 697" fill="#e3d6ad" stroke="#3e5147" stroke-width="2" stroke-linecap="round" stroke-linejoin="round" /><path d="M187 724 Q157 692 161 685 Q191 695 187 724" fill="#e3d6ad" stroke="#3e5147" stroke-width="2" stroke-linecap="round" stroke-linejoin="round" /><path d="M187 751 Q157 719 161 712 Q191 722 187 751" fill="#e3d6ad" stroke="#3e5147" stroke-width="2" stroke-linecap="round" stroke-linejoin="round" /><path d="M187 778 Q157 746 161 739 Q191 749 187 778" fill="#e3d6ad" stroke="#3e5147" stroke-width="2" stroke-linecap="round" stroke-linejoin="round" /><path d="M170 1025 Q168 820 203 670" fill="none" stroke="#3e5147" stroke-width="3" stroke-linecap="round" stroke-linejoin="round" /><path d="M203 712 Q173 680 177 673 Q207 683 203 712" fill="#e3d6ad" stroke="#3e5147" stroke-width="2" stroke-linecap="round" stroke-linejoin="round" /><path d="M203 739 Q173 707 177 700 Q207 710 203 739" fill="#e3d6ad" stroke="#3e5147" stroke-width="2" stroke-linecap="round" stroke-linejoin="round" /><path d="M203 766 Q173 734 177 727 Q207 737 203 766" fill="#e3d6ad" stroke="#3e5147" stroke-width="2" stroke-linecap="round" stroke-linejoin="round" /><path d="M203 793 Q173 761 177 754 Q207 764 203 793" fill="#e3d6ad" stroke="#3e5147" stroke-width="2" stroke-linecap="round" stroke-linejoin="round" /><circle cx="1710" cy="160" r="74" fill="#f1e3bc" stroke="none" stroke-width="1"/></g></svg>
