<svg xmlns="http://www.w3.org/2000/svg" width="1920" height="1080" viewBox="0 0 1920 1080">
<defs>
<linearGradient id="card" x2="0" y2="1"><stop stop-color="#fffaf0"/><stop offset="1" stop-color="#eee2c9"/></linearGradient>
<linearGradient id="brass" x2="0" y2="1"><stop stop-color="#d6bd83"/><stop offset="0.45" stop-color="#a68a55"/><stop offset="1" stop-color="#746042"/></linearGradient>
<linearGradient id="enamel" x2="0" y2="1"><stop stop-color="#395957"/><stop offset="1" stop-color="#243c3b"/></linearGradient>
</defs><path d="M1693.5 256.5 H1838.5 L1841.5 259.5 V428.5 L1838.5 431.5 H1693.5 L1690.5 428.5 V259.5 Z" fill="#a38b65" stroke="#77684f" /><path d="M1693 257 H1837 L1839 259 V427 L1837 429 H1693 L1691 427 V259 Z" fill="url(#card)" stroke="#d7c49c" /><rect x="1700" y="290" width="132" height="132" fill="#fffaf0" stroke="none" /><rect x="1693" y="263" width="3" height="13" fill="url(#brass)" stroke="#8c7047" stroke-width="0.5"/><rect x="1835" y="263" width="3" height="13" fill="url(#brass)" stroke="#8c7047" stroke-width="0.5"/><path d="M1699 285 H1833" fill="none" stroke="#c1b18d" stroke-width="0.7" /><path d="M402 975 H546 L551 980 V1020 L546 1025 H402 L397 1020 V980 Z" fill="#cbb991" stroke="#8b7652" /><path d="M558 975 H650 L655 980 V1020 L650 1025 H558 L553 1020 V980 Z" fill="#cbb991" stroke="#8b7652" /><path d="M662 975 H858 L863 980 V1020 L858 1025 H662 L657 1020 V980 Z" fill="#cbb991" stroke="#8b7652" /><path d="M1700 481 H1798 L1803 486 V584 L1798 589 H1700 L1695 584 V486 Z" fill="url(#card)" stroke="#ad936a" /><g data-action="fill" data-state="active"><rect x="400" y="978" width="44" height="44" fill="none" stroke="none" data-hit="true"/><path d="M404.5 978.5 H439.5 L443.5 982.5 V1017.5 L439.5 1021.5 H404.5 L400.5 1017.5 V982.5 Z" fill="url(#brass)" stroke="#68583f" /><path d="M405 980 H439 L442 983 V1017 L439 1020 H405 L402 1017 V983 Z" fill="url(#enamel)" stroke="#b9a578" /><path d="M406 982 H438" fill="none" stroke="#fff5d6" stroke-width="0.7" /><path d="M406 1019 H438" fill="none" stroke="#74664d" stroke-width="0.7" /></g><g data-action="erase" data-state="normal"><rect x="452" y="978" width="44" height="44" fill="none" stroke="none" data-hit="true"/><path d="M456.5 978.5 H491.5 L495.5 982.5 V1017.5 L491.5 1021.5 H456.5 L452.5 1017.5 V982.5 Z" fill="url(#brass)" stroke="#68583f" /><path d="M457 980 H491 L494 983 V1017 L491 1020 H457 L454 1017 V983 Z" fill="url(#card)" stroke="#b9a578" /><path d="M458 982 H490" fill="none" stroke="#fff5d6" stroke-width="0.7" /><path d="M458 1019 H490" fill="none" stroke="#74664d" stroke-width="0.7" /></g><g data-action="hand" data-state="normal"><rect x="504" y="978" width="44" height="44" fill="none" stroke="none" data-hit="true"/><path d="M508.5 978.5 H543.5 L547.5 982.5 V1017.5 L543.5 1021.5 H508.5 L504.5 1017.5 V982.5 Z" fill="url(#brass)" stroke="#68583f" /><path d="M509 980 H543 L546 983 V1017 L543 1020 H509 L506 1017 V983 Z" fill="url(#card)" stroke="#b9a578" /><path d="M510 982 H542" fill="none" stroke="#fff5d6" stroke-width="0.7" /><path d="M510 1019 H542" fill="none" stroke="#74664d" stroke-width="0.7" /></g><g data-action="undo" data-state="normal"><rect x="556" y="978" width="44" height="44" fill="none" stroke="none" data-hit="true"/><path d="M560.5 978.5 H595.5 L599.5 982.5 V1017.5 L595.5 1021.5 H560.5 L556.5 1017.5 V982.5 Z" fill="url(#brass)" stroke="#68583f" /><path d="M561 980 H595 L598 983 V1017 L595 1020 H561 L558 1017 V983 Z" fill="url(#card)" stroke="#b9a578" /><path d="M562 982 H594" fill="none" stroke="#fff5d6" stroke-width="0.7" /><path d="M562 1019 H594" fill="none" stroke="#74664d" stroke-width="0.7" /></g><g data-action="redo" data-state="normal"><rect x="608" y="978" width="44" height="44" fill="none" stroke="none" data-hit="true"/><path d="M612.5 978.5 H647.5 L651.5 982.5 V1017.5 L647.5 1021.5 H612.5 L608.5 1017.5 V982.5 Z" fill="url(#brass)" stroke="#68583f" /><path d="M613 980 H647 L650 983 V1017 L647 1020 H613 L610 1017 V983 Z" fill="url(#card)" stroke="#b9a578" /><path d="M614 982 H646" fill="none" stroke="#fff5d6" stroke-width="0.7" /><path d="M614 1019 H646" fill="none" stroke="#74664d" stroke-width="0.7" /></g><g data-action="minus" data-state="normal"><rect x="660" y="978" width="44" height="44" fill="none" stroke="none" data-hit="true"/><path d="M664.5 978.5 H699.5 L703.5 982.5 V1017.5 L699.5 1021.5 H664.5 L660.5 1017.5 V982.5 Z" fill="url(#brass)" stroke="#68583f" /><path d="M665 980 H699 L702 983 V1017 L699 1020 H665 L662 1017 V983 Z" fill="url(#card)" stroke="#b9a578" /><path d="M666 982 H698" fill="none" stroke="#fff5d6" stroke-width="0.7" /><path d="M666 1019 H698" fill="none" stroke="#74664d" stroke-width="0.7" /></g><g data-action="plus" data-state="normal"><rect x="712" y="978" width="44" height="44" fill="none" stroke="none" data-hit="true"/><path d="M716.5 978.5 H751.5 L755.5 982.5 V1017.5 L751.5 1021.5 H716.5 L712.5 1017.5 V982.5 Z" fill="url(#brass)" stroke="#68583f" /><path d="M717 980 H751 L754 983 V1017 L751 1020 H717 L714 1017 V983 Z" fill="url(#card)" stroke="#b9a578" /><path d="M718 982 H750" fill="none" stroke="#fff5d6" stroke-width="0.7" /><path d="M718 1019 H750" fill="none" stroke="#74664d" stroke-width="0.7" /></g><g data-action="fit" data-state="normal"><rect x="764" y="978" width="44" height="44" fill="none" stroke="none" data-hit="true"/><path d="M768.5 978.5 H803.5 L807.5 982.5 V1017.5 L803.5 1021.5 H768.5 L764.5 1017.5 V982.5 Z" fill="url(#brass)" stroke="#68583f" /><path d="M769 980 H803 L806 983 V1017 L803 1020 H769 L766 1017 V983 Z" fill="url(#card)" stroke="#b9a578" /><path d="M770 982 H802" fill="none" stroke="#fff5d6" stroke-width="0.7" /><path d="M770 1019 H802" fill="none" stroke="#74664d" stroke-width="0.7" /></g><g data-action="work" data-state="normal"><rect x="816" y="978" width="44" height="44" fill="none" stroke="none" data-hit="true"/><path d="M820.5 978.5 H855.5 L859.5 982.5 V1017.5 L855.5 1021.5 H820.5 L816.5 1017.5 V982.5 Z" fill="url(#brass)" stroke="#68583f" /><path d="M821 980 H855 L858 983 V1017 L855 1020 H821 L818 1017 V983 Z" fill="url(#card)" stroke="#b9a578" /><path d="M822 982 H854" fill="none" stroke="#fff5d6" stroke-width="0.7" /><path d="M822 1019 H854" fill="none" stroke="#74664d" stroke-width="0.7" /></g><g data-action="help" data-state="normal"><rect x="1656" y="40.5" width="44" height="44" fill="none" stroke="none" data-hit="true"/><path d="M1660.5 41.0 H1695.5 L1699.5 45.0 V80.0 L1695.5 84.0 H1660.5 L1656.5 80.0 V45.0 Z" fill="url(#brass)" stroke="#68583f" /><path d="M1661 42.5 H1695 L1698 45.5 V79.5 L1695 82.5 H1661 L1658 79.5 V45.5 Z" fill="url(#card)" stroke="#b9a578" /><path d="M1662 44.5 H1694" fill="none" stroke="#fff5d6" stroke-width="0.7" /><path d="M1662 81.5 H1694" fill="none" stroke="#74664d" stroke-width="0.7" /></g><g data-action="menu" data-state="normal"><rect x="1714" y="40.5" width="44" height="44" fill="none" stroke="none" data-hit="true"/><path d="M1718.5 41.0 H1753.5 L1757.5 45.0 V80.0 L1753.5 84.0 H1718.5 L1714.5 80.0 V45.0 Z" fill="url(#brass)" stroke="#68583f" /><path d="M1719 42.5 H1753 L1756 45.5 V79.5 L1753 82.5 H1719 L1716 79.5 V45.5 Z" fill="url(#card)" stroke="#b9a578" /><path d="M1720 44.5 H1752" fill="none" stroke="#fff5d6" stroke-width="0.7" /><path d="M1720 81.5 H1752" fill="none" stroke="#74664d" stroke-width="0.7" /></g><g data-action="color-1" data-state="active"><rect x="1700" y="486" width="44" height="44" fill="none" stroke="none" data-hit="true"/><path d="M1704.5 486.5 H1739.5 L1743.5 490.5 V525.5 L1739.5 529.5 H1704.5 L1700.5 525.5 V490.5 Z" fill="url(#brass)" stroke="#68583f" /><path d="M1705 488 H1739 L1742 491 V525 L1739 528 H1705 L1702 525 V491 Z" fill="url(#enamel)" stroke="#b9a578" /><path d="M1706 490 H1738" fill="none" stroke="#fff5d6" stroke-width="0.7" /><path d="M1706 527 H1738" fill="none" stroke="#74664d" stroke-width="0.7" /></g><g data-action="color-2" data-state="normal"><rect x="1754" y="486" width="44" height="44" fill="none" stroke="none" data-hit="true"/><path d="M1758.5 486.5 H1793.5 L1797.5 490.5 V525.5 L1793.5 529.5 H1758.5 L1754.5 525.5 V490.5 Z" fill="url(#brass)" stroke="#68583f" /><path d="M1759 488 H1793 L1796 491 V525 L1793 528 H1759 L1756 525 V491 Z" fill="url(#card)" stroke="#b9a578" /><path d="M1760 490 H1792" fill="none" stroke="#fff5d6" stroke-width="0.7" /><path d="M1760 527 H1792" fill="none" stroke="#74664d" stroke-width="0.7" /></g><g data-action="color-3" data-state="normal"><rect x="1700" y="540" width="44" height="44" fill="none" stroke="none" data-hit="true"/><path d="M1704.5 540.5 H1739.5 L1743.5 544.5 V579.5 L1739.5 583.5 H1704.5 L1700.5 579.5 V544.5 Z" fill="url(#brass)" stroke="#68583f" /><path d="M1705 542 H1739 L1742 545 V579 L1739 582 H1705 L1702 579 V545 Z" fill="url(#card)" stroke="#b9a578" /><path d="M1706 544 H1738" fill="none" stroke="#fff5d6" stroke-width="0.7" /><path d="M1706 581 H1738" fill="none" stroke="#74664d" stroke-width="0.7" /></g><g data-action="color-4" data-state="normal"><rect x="1754" y="540" width="44" height="44" fill="none" stroke="none" data-hit="true"/><path d="M1758.5 540.5 H1793.5 L1797.5 544.5 V579.5 L1793.5 583.5 H1758.5 L1754.5 579.5 V544.5 Z" fill="url(#brass)" stroke="#68583f" /><path d="M1759 542 H1793 L1796 545 V579 L1793 582 H1759 L1756 579 V545 Z" fill="url(#card)" stroke="#b9a578" /><path d="M1760 544 H1792" fill="none" stroke="#fff5d6" stroke-width="0.7" /><path d="M1760 581 H1792" fill="none" stroke="#74664d" stroke-width="0.7" /></g><g data-action="nav-album" data-state="normal" data-target="album"><rect x="6.0" y="105.0" width="44" height="44" fill="none" stroke="none" data-hit="true"/><path d="M10.5 105.5 H45.5 L49.5 109.5 V144.5 L45.5 148.5 H10.5 L6.5 144.5 V109.5 Z" fill="url(#brass)" stroke="#68583f" /><path d="M11.0 107.0 H45.0 L48.0 110.0 V144.0 L45.0 147.0 H11.0 L8.0 144.0 V110.0 Z" fill="url(#card)" stroke="#b9a578" /><path d="M12.0 109.0 H44.0" fill="none" stroke="#fff5d6" stroke-width="0.7" /><path d="M12.0 146.0 H44.0" fill="none" stroke="#74664d" stroke-width="0.7" /></g><g data-action="nav-information" data-state="normal" data-target="information"><rect x="1770" y="36.0" width="44" height="44" fill="none" stroke="none" data-hit="true"/><path d="M1774.5 36.5 H1809.5 L1813.5 40.5 V75.5 L1809.5 79.5 H1774.5 L1770.5 75.5 V40.5 Z" fill="url(#brass)" stroke="#68583f" /><path d="M1775 38.0 H1809 L1812 41.0 V75.0 L1809 78.0 H1775 L1772 75.0 V41.0 Z" fill="url(#card)" stroke="#b9a578" /><path d="M1776 40.0 H1808" fill="none" stroke="#fff5d6" stroke-width="0.7" /><path d="M1776 77.0 H1808" fill="none" stroke="#74664d" stroke-width="0.7" /></g>
</svg>
