<svg xmlns="http://www.w3.org/2000/svg" width="1600" height="1320" viewBox="0 0 1600 1320">
<defs>
<linearGradient id="card" x2="0" y2="1"><stop stop-color="#fffaf0"/><stop offset="1" stop-color="#eee2c9"/></linearGradient>
<linearGradient id="brass" x2="0" y2="1"><stop stop-color="#d6bd83"/><stop offset="0.45" stop-color="#a68a55"/><stop offset="1" stop-color="#746042"/></linearGradient>
<linearGradient id="enamel" x2="0" y2="1"><stop stop-color="#395957"/><stop offset="1" stop-color="#243c3b"/></linearGradient>
</defs><text x="48" y="52" font-family="PlexSans, sans-serif" font-size="28" fill="#293e3d" style="font-family:Fraunces,serif;font-weight:600">Werkzeuge, Farben und Rückwege</text><text x="48" y="84" font-family="PlexSans, sans-serif" font-size="17" fill="#293e3d" >Statische Zustandsbeispiele · keine ausgeführten Aktionen oder Speichervorgänge</text><text x="390" y="130" font-family="PlexSans, sans-serif" font-size="17" fill="#293e3d" >Normal</text><text x="615" y="130" font-family="PlexSans, sans-serif" font-size="17" fill="#293e3d" >Hover</text><text x="840" y="130" font-family="PlexSans, sans-serif" font-size="17" fill="#293e3d" >Gedrückt</text><text x="1065" y="130" font-family="PlexSans, sans-serif" font-size="17" fill="#293e3d" >Ausgewählt</text><text x="1290" y="130" font-family="PlexSans, sans-serif" font-size="17" fill="#293e3d" >Deaktiviert</text><text x="48" y="184" font-family="PlexSans, sans-serif" font-size="18" fill="#293e3d" >Füllen</text><g data-action="fill" data-state="normal"><rect x="390" y="155" width="44" height="44" fill="none" stroke="none" data-hit="true"/><g transform="translate(399 164) scale(1)"><path d="M4 17 L15 6 L19 10 L8 21 L3 22 Z M13 8 L17 12 M16 3 L21 8" fill="none" stroke="#293e3d" stroke-width="1.8" stroke-linecap="round" stroke-linejoin="round"/></g><title>Füllen · links Farbe setzen, rechts leer markieren</title></g><g data-action="fill" data-state="hover"><rect x="615" y="155" width="44" height="44" fill="none" stroke="none" data-hit="true"/><g transform="translate(624 164) scale(1)"><path d="M4 17 L15 6 L19 10 L8 21 L3 22 Z M13 8 L17 12 M16 3 L21 8" fill="none" stroke="#293e3d" stroke-width="1.8" stroke-linecap="round" stroke-linejoin="round"/></g><title>Füllen · links Farbe setzen, rechts leer markieren</title></g><g data-action="fill" data-state="pressed"><rect x="840" y="155" width="44" height="44" fill="none" stroke="none" data-hit="true"/><g transform="translate(849 165) scale(1)"><path d="M4 17 L15 6 L19 10 L8 21 L3 22 Z M13 8 L17 12 M16 3 L21 8" fill="none" stroke="#293e3d" stroke-width="1.8" stroke-linecap="round" stroke-linejoin="round"/></g><title>Füllen · links Farbe setzen, rechts leer markieren</title></g><g data-action="fill" data-state="active"><rect x="1065" y="155" width="44" height="44" fill="none" stroke="none" data-hit="true"/><g transform="translate(1074 164) scale(1)"><path d="M4 17 L15 6 L19 10 L8 21 L3 22 Z M13 8 L17 12 M16 3 L21 8" fill="none" stroke="#fffaf0" stroke-width="1.8" stroke-linecap="round" stroke-linejoin="round"/></g><path d="M1076 193 H1098" fill="none" stroke="#fffaf0" stroke-width="2" /><title>Füllen · links Farbe setzen, rechts leer markieren</title></g><text x="1290" y="182" font-family="PlexSans, sans-serif" font-size="18" fill="#293e3d" >—</text><path d="M48 213 H1530" fill="none" stroke="#d4c7a9" stroke-width="0.6" /><text x="48" y="254" font-family="PlexSans, sans-serif" font-size="18" fill="#293e3d" >Radierer</text><g data-action="erase" data-state="normal"><rect x="390" y="225" width="44" height="44" fill="none" stroke="none" data-hit="true"/><g transform="translate(399 234) scale(1)"><path d="M3 15 L13 5 L22 14 L14 22 H10 Z M8 10 L17 19 M14 22 H23" fill="none" stroke="#293e3d" stroke-width="1.8" stroke-linecap="round" stroke-linejoin="round"/></g><title>Radierer · Markierungen entfernen</title></g><g data-action="erase" data-state="hover"><rect x="615" y="225" width="44" height="44" fill="none" stroke="none" data-hit="true"/><g transform="translate(624 234) scale(1)"><path d="M3 15 L13 5 L22 14 L14 22 H10 Z M8 10 L17 19 M14 22 H23" fill="none" stroke="#293e3d" stroke-width="1.8" stroke-linecap="round" stroke-linejoin="round"/></g><title>Radierer · Markierungen entfernen</title></g><g data-action="erase" data-state="pressed"><rect x="840" y="225" width="44" height="44" fill="none" stroke="none" data-hit="true"/><g transform="translate(849 235) scale(1)"><path d="M3 15 L13 5 L22 14 L14 22 H10 Z M8 10 L17 19 M14 22 H23" fill="none" stroke="#293e3d" stroke-width="1.8" stroke-linecap="round" stroke-linejoin="round"/></g><title>Radierer · Markierungen entfernen</title></g><g data-action="erase" data-state="active"><rect x="1065" y="225" width="44" height="44" fill="none" stroke="none" data-hit="true"/><g transform="translate(1074 234) scale(1)"><path d="M3 15 L13 5 L22 14 L14 22 H10 Z M8 10 L17 19 M14 22 H23" fill="none" stroke="#fffaf0" stroke-width="1.8" stroke-linecap="round" stroke-linejoin="round"/></g><path d="M1076 263 H1098" fill="none" stroke="#fffaf0" stroke-width="2" /><title>Radierer · Markierungen entfernen</title></g><text x="1290" y="252" font-family="PlexSans, sans-serif" font-size="18" fill="#293e3d" >—</text><path d="M48 283 H1530" fill="none" stroke="#d4c7a9" stroke-width="0.6" /><text x="48" y="324" font-family="PlexSans, sans-serif" font-size="18" fill="#293e3d" >Hand</text><g data-action="hand" data-state="normal"><rect x="390" y="295" width="44" height="44" fill="none" stroke="none" data-hit="true"/><g transform="translate(399 304) scale(1)"><path d="M7 13 V7 Q7 4 10 6 V12 V3 Q13 1 14 4 V12 V5 Q17 3 18 6 V13 V9 Q21 7 22 10 V17 Q21 23 15 23 H12 Q9 23 7 20 L3 14 Q3 11 6 12 Z" fill="none" stroke="#293e3d" stroke-width="1.8" stroke-linecap="round" stroke-linejoin="round"/></g><title>Hand · Raster oder einzelne Hinweisfolge verschieben</title></g><g data-action="hand" data-state="hover"><rect x="615" y="295" width="44" height="44" fill="none" stroke="none" data-hit="true"/><g transform="translate(624 304) scale(1)"><path d="M7 13 V7 Q7 4 10 6 V12 V3 Q13 1 14 4 V12 V5 Q17 3 18 6 V13 V9 Q21 7 22 10 V17 Q21 23 15 23 H12 Q9 23 7 20 L3 14 Q3 11 6 12 Z" fill="none" stroke="#293e3d" stroke-width="1.8" stroke-linecap="round" stroke-linejoin="round"/></g><title>Hand · Raster oder einzelne Hinweisfolge verschieben</title></g><g data-action="hand" data-state="pressed"><rect x="840" y="295" width="44" height="44" fill="none" stroke="none" data-hit="true"/><g transform="translate(849 305) scale(1)"><path d="M7 13 V7 Q7 4 10 6 V12 V3 Q13 1 14 4 V12 V5 Q17 3 18 6 V13 V9 Q21 7 22 10 V17 Q21 23 15 23 H12 Q9 23 7 20 L3 14 Q3 11 6 12 Z" fill="none" stroke="#293e3d" stroke-width="1.8" stroke-linecap="round" stroke-linejoin="round"/></g><title>Hand · Raster oder einzelne Hinweisfolge verschieben</title></g><g data-action="hand" data-state="active"><rect x="1065" y="295" width="44" height="44" fill="none" stroke="none" data-hit="true"/><g transform="translate(1074 304) scale(1)"><path d="M7 13 V7 Q7 4 10 6 V12 V3 Q13 1 14 4 V12 V5 Q17 3 18 6 V13 V9 Q21 7 22 10 V17 Q21 23 15 23 H12 Q9 23 7 20 L3 14 Q3 11 6 12 Z" fill="none" stroke="#fffaf0" stroke-width="1.8" stroke-linecap="round" stroke-linejoin="round"/></g><path d="M1076 333 H1098" fill="none" stroke="#fffaf0" stroke-width="2" /><title>Hand · Raster oder einzelne Hinweisfolge verschieben</title></g><text x="1290" y="322" font-family="PlexSans, sans-serif" font-size="18" fill="#293e3d" >—</text><path d="M48 353 H1530" fill="none" stroke="#d4c7a9" stroke-width="0.6" /><text x="48" y="394" font-family="PlexSans, sans-serif" font-size="18" fill="#293e3d" >Farbmuster 2</text><g data-action="color-2" data-state="normal"><rect x="390" y="365" width="44" height="44" fill="none" stroke="none" data-hit="true"/><rect x="395" y="370" width="34" height="34" fill="#edca78" stroke="none" data-swatch="true"/><title>Farbe wählen · aktiviert Füllen</title></g><g data-action="color-2" data-state="hover"><rect x="615" y="365" width="44" height="44" fill="none" stroke="none" data-hit="true"/><rect x="620" y="370" width="34" height="34" fill="#edca78" stroke="none" data-swatch="true"/><title>Farbe wählen · aktiviert Füllen</title></g><g data-action="color-2" data-state="pressed"><rect x="840" y="365" width="44" height="44" fill="none" stroke="none" data-hit="true"/><rect x="845" y="370" width="34" height="34" fill="#edca78" stroke="none" data-swatch="true"/><title>Farbe wählen · aktiviert Füllen</title></g><g data-action="color-2" data-state="active"><rect x="1065" y="365" width="44" height="44" fill="none" stroke="none" data-hit="true"/><rect x="1070" y="370" width="34" height="34" fill="#edca78" stroke="none" data-swatch="true"/><path d="M1067 379 V367 H1079 M1095 407 H1107 V395" fill="none" stroke="#293e3d" stroke-width="3" /><path d="M1067 379 V367 H1079 M1095 407 H1107 V395" fill="none" stroke="#fffaf0" stroke-width="1" /><title>Farbe wählen · aktiviert Füllen</title></g><text x="1290" y="392" font-family="PlexSans, sans-serif" font-size="18" fill="#293e3d" >—</text><path d="M48 423 H1530" fill="none" stroke="#d4c7a9" stroke-width="0.6" /><text x="48" y="464" font-family="PlexSans, sans-serif" font-size="18" fill="#293e3d" >Rückgängig</text><g data-action="undo" data-state="normal"><rect x="390" y="435" width="44" height="44" fill="none" stroke="none" data-hit="true"/><g transform="translate(399 444) scale(1)"><path d="M9 5 L3 11 L9 17 M3 11 H15 Q23 11 22 20" fill="none" stroke="#293e3d" stroke-width="1.8" stroke-linecap="round" stroke-linejoin="round"/></g><title>Letzten Strich rückgängig machen</title></g><g data-action="undo" data-state="hover"><rect x="615" y="435" width="44" height="44" fill="none" stroke="none" data-hit="true"/><g transform="translate(624 444) scale(1)"><path d="M9 5 L3 11 L9 17 M3 11 H15 Q23 11 22 20" fill="none" stroke="#293e3d" stroke-width="1.8" stroke-linecap="round" stroke-linejoin="round"/></g><title>Letzten Strich rückgängig machen</title></g><g data-action="undo" data-state="pressed"><rect x="840" y="435" width="44" height="44" fill="none" stroke="none" data-hit="true"/><g transform="translate(849 445) scale(1)"><path d="M9 5 L3 11 L9 17 M3 11 H15 Q23 11 22 20" fill="none" stroke="#293e3d" stroke-width="1.8" stroke-linecap="round" stroke-linejoin="round"/></g><title>Letzten Strich rückgängig machen</title></g><text x="1065" y="462" font-family="PlexSans, sans-serif" font-size="18" fill="#293e3d" >—</text><g data-action="undo" data-state="disabled"><rect x="1290" y="435" width="44" height="44" fill="none" stroke="none" data-hit="true"/><g transform="translate(1299 444) scale(1)"><path d="M9 5 L3 11 L9 17 M3 11 H15 Q23 11 22 20" fill="none" stroke="#757970" stroke-width="1.8" stroke-linecap="round" stroke-linejoin="round"/></g><path d="M1296 472 h4" fill="none" stroke="#757970" stroke-width="1.5" /><title>Letzten Strich rückgängig machen</title></g><path d="M48 493 H1530" fill="none" stroke="#d4c7a9" stroke-width="0.6" /><text x="48" y="534" font-family="PlexSans, sans-serif" font-size="18" fill="#293e3d" >Wiederholen</text><g data-action="redo" data-state="normal"><rect x="390" y="505" width="44" height="44" fill="none" stroke="none" data-hit="true"/><g transform="translate(399 514) scale(1)"><path d="M17 5 L23 11 L17 17 M23 11 H11 Q3 11 4 20" fill="none" stroke="#293e3d" stroke-width="1.8" stroke-linecap="round" stroke-linejoin="round"/></g><title>Zurückgenommenen Strich wiederholen</title></g><g data-action="redo" data-state="hover"><rect x="615" y="505" width="44" height="44" fill="none" stroke="none" data-hit="true"/><g transform="translate(624 514) scale(1)"><path d="M17 5 L23 11 L17 17 M23 11 H11 Q3 11 4 20" fill="none" stroke="#293e3d" stroke-width="1.8" stroke-linecap="round" stroke-linejoin="round"/></g><title>Zurückgenommenen Strich wiederholen</title></g><g data-action="redo" data-state="pressed"><rect x="840" y="505" width="44" height="44" fill="none" stroke="none" data-hit="true"/><g transform="translate(849 515) scale(1)"><path d="M17 5 L23 11 L17 17 M23 11 H11 Q3 11 4 20" fill="none" stroke="#293e3d" stroke-width="1.8" stroke-linecap="round" stroke-linejoin="round"/></g><title>Zurückgenommenen Strich wiederholen</title></g><text x="1065" y="532" font-family="PlexSans, sans-serif" font-size="18" fill="#293e3d" >—</text><g data-action="redo" data-state="disabled"><rect x="1290" y="505" width="44" height="44" fill="none" stroke="none" data-hit="true"/><g transform="translate(1299 514) scale(1)"><path d="M17 5 L23 11 L17 17 M23 11 H11 Q3 11 4 20" fill="none" stroke="#757970" stroke-width="1.8" stroke-linecap="round" stroke-linejoin="round"/></g><path d="M1296 542 h4" fill="none" stroke="#757970" stroke-width="1.5" /><title>Zurückgenommenen Strich wiederholen</title></g><path d="M48 563 H1530" fill="none" stroke="#d4c7a9" stroke-width="0.6" /><text x="48" y="604" font-family="PlexSans, sans-serif" font-size="18" fill="#293e3d" >Album</text><g data-action="nav-album" data-state="normal" data-target="album"><rect x="390" y="575" width="44" height="44" fill="none" stroke="none" data-hit="true"/><g transform="translate(399 584) scale(1)"><path d="M3 4 h8 v18 H3 Z M11 4 h10 v18 H11 M6 8 h2 M14 8 h4" fill="none" stroke="#293e3d" stroke-width="1.8" stroke-linecap="round" stroke-linejoin="round"/></g><title>Album öffnen · Sammlung und Blattauswahl</title></g><g data-action="nav-album" data-state="hover" data-target="album"><rect x="615" y="575" width="44" height="44" fill="none" stroke="none" data-hit="true"/><g transform="translate(624 584) scale(1)"><path d="M3 4 h8 v18 H3 Z M11 4 h10 v18 H11 M6 8 h2 M14 8 h4" fill="none" stroke="#293e3d" stroke-width="1.8" stroke-linecap="round" stroke-linejoin="round"/></g><title>Album öffnen · Sammlung und Blattauswahl</title></g><g data-action="nav-album" data-state="pressed" data-target="album"><rect x="840" y="575" width="44" height="44" fill="none" stroke="none" data-hit="true"/><g transform="translate(849 585) scale(1)"><path d="M3 4 h8 v18 H3 Z M11 4 h10 v18 H11 M6 8 h2 M14 8 h4" fill="none" stroke="#293e3d" stroke-width="1.8" stroke-linecap="round" stroke-linejoin="round"/></g><title>Album öffnen · Sammlung und Blattauswahl</title></g><g data-action="nav-album" data-state="active" data-target="album"><rect x="1065" y="575" width="44" height="44" fill="none" stroke="none" data-hit="true"/><g transform="translate(1074 584) scale(1)"><path d="M3 4 h8 v18 H3 Z M11 4 h10 v18 H11 M6 8 h2 M14 8 h4" fill="none" stroke="#fffaf0" stroke-width="1.8" stroke-linecap="round" stroke-linejoin="round"/></g><path d="M1076 613 H1098" fill="none" stroke="#fffaf0" stroke-width="2" /><title>Album öffnen · Sammlung und Blattauswahl</title></g><g data-action="nav-album" data-state="disabled" data-target="album"><rect x="1290" y="575" width="44" height="44" fill="none" stroke="none" data-hit="true"/><g transform="translate(1299 584) scale(1)"><path d="M3 4 h8 v18 H3 Z M11 4 h10 v18 H11 M6 8 h2 M14 8 h4" fill="none" stroke="#757970" stroke-width="1.8" stroke-linecap="round" stroke-linejoin="round"/></g><path d="M1296 612 h4" fill="none" stroke="#757970" stroke-width="1.5" /><title>Album öffnen · Sammlung und Blattauswahl</title></g><path d="M48 633 H1530" fill="none" stroke="#d4c7a9" stroke-width="0.6" /><text x="48" y="674" font-family="PlexSans, sans-serif" font-size="18" fill="#293e3d" >Information</text><g data-action="nav-information" data-state="normal" data-target="information"><rect x="390" y="645" width="44" height="44" fill="none" stroke="none" data-hit="true"/><g transform="translate(399 654) scale(1)"><path d="M4 12 h16 m-7 -7 l7 7 -7 7" fill="none" stroke="#293e3d" stroke-width="1.8" stroke-linecap="round" stroke-linejoin="round"/></g><title>Informationsseite öffnen · Einstellungen und Hilfe</title></g><g data-action="nav-information" data-state="hover" data-target="information"><rect x="615" y="645" width="44" height="44" fill="none" stroke="none" data-hit="true"/><g transform="translate(624 654) scale(1)"><path d="M4 12 h16 m-7 -7 l7 7 -7 7" fill="none" stroke="#293e3d" stroke-width="1.8" stroke-linecap="round" stroke-linejoin="round"/></g><title>Informationsseite öffnen · Einstellungen und Hilfe</title></g><g data-action="nav-information" data-state="pressed" data-target="information"><rect x="840" y="645" width="44" height="44" fill="none" stroke="none" data-hit="true"/><g transform="translate(849 655) scale(1)"><path d="M4 12 h16 m-7 -7 l7 7 -7 7" fill="none" stroke="#293e3d" stroke-width="1.8" stroke-linecap="round" stroke-linejoin="round"/></g><title>Informationsseite öffnen · Einstellungen und Hilfe</title></g><g data-action="nav-information" data-state="active" data-target="information"><rect x="1065" y="645" width="44" height="44" fill="none" stroke="none" data-hit="true"/><g transform="translate(1074 654) scale(1)"><path d="M4 12 h16 m-7 -7 l7 7 -7 7" fill="none" stroke="#fffaf0" stroke-width="1.8" stroke-linecap="round" stroke-linejoin="round"/></g><path d="M1076 683 H1098" fill="none" stroke="#fffaf0" stroke-width="2" /><title>Informationsseite öffnen · Einstellungen und Hilfe</title></g><g data-action="nav-information" data-state="disabled" data-target="information"><rect x="1290" y="645" width="44" height="44" fill="none" stroke="none" data-hit="true"/><g transform="translate(1299 654) scale(1)"><path d="M4 12 h16 m-7 -7 l7 7 -7 7" fill="none" stroke="#757970" stroke-width="1.8" stroke-linecap="round" stroke-linejoin="round"/></g><path d="M1296 682 h4" fill="none" stroke="#757970" stroke-width="1.5" /><title>Informationsseite öffnen · Einstellungen und Hilfe</title></g><path d="M48 703 H1530" fill="none" stroke="#d4c7a9" stroke-width="0.6" /><text x="48" y="744" font-family="PlexSans, sans-serif" font-size="18" fill="#293e3d" >Zum Rätsel</text><g data-action="nav-work" data-state="normal" data-target="work"><rect x="390" y="715" width="44" height="44" fill="none" stroke="none" data-hit="true"/><g transform="translate(399 724) scale(1)"><path d="M20 12 H4 m7 -7 l-7 7 7 7" fill="none" stroke="#293e3d" stroke-width="1.8" stroke-linecap="round" stroke-linejoin="round"/></g><title>Zur Arbeitsseite zurück · Arbeitsstand erhalten</title></g><g data-action="nav-work" data-state="hover" data-target="work"><rect x="615" y="715" width="44" height="44" fill="none" stroke="none" data-hit="true"/><g transform="translate(624 724) scale(1)"><path d="M20 12 H4 m7 -7 l-7 7 7 7" fill="none" stroke="#293e3d" stroke-width="1.8" stroke-linecap="round" stroke-linejoin="round"/></g><title>Zur Arbeitsseite zurück · Arbeitsstand erhalten</title></g><g data-action="nav-work" data-state="pressed" data-target="work"><rect x="840" y="715" width="44" height="44" fill="none" stroke="none" data-hit="true"/><g transform="translate(849 725) scale(1)"><path d="M20 12 H4 m7 -7 l-7 7 7 7" fill="none" stroke="#293e3d" stroke-width="1.8" stroke-linecap="round" stroke-linejoin="round"/></g><title>Zur Arbeitsseite zurück · Arbeitsstand erhalten</title></g><g data-action="nav-work" data-state="active" data-target="work"><rect x="1065" y="715" width="44" height="44" fill="none" stroke="none" data-hit="true"/><g transform="translate(1074 724) scale(1)"><path d="M20 12 H4 m7 -7 l-7 7 7 7" fill="none" stroke="#fffaf0" stroke-width="1.8" stroke-linecap="round" stroke-linejoin="round"/></g><path d="M1076 753 H1098" fill="none" stroke="#fffaf0" stroke-width="2" /><title>Zur Arbeitsseite zurück · Arbeitsstand erhalten</title></g><g data-action="nav-work" data-state="disabled" data-target="work"><rect x="1290" y="715" width="44" height="44" fill="none" stroke="none" data-hit="true"/><g transform="translate(1299 724) scale(1)"><path d="M20 12 H4 m7 -7 l-7 7 7 7" fill="none" stroke="#757970" stroke-width="1.8" stroke-linecap="round" stroke-linejoin="round"/></g><path d="M1296 752 h4" fill="none" stroke="#757970" stroke-width="1.5" /><title>Zur Arbeitsseite zurück · Arbeitsstand erhalten</title></g><path d="M48 773 H1530" fill="none" stroke="#d4c7a9" stroke-width="0.6" /><text x="48" y="812" font-family="PlexSans, sans-serif" font-size="16" fill="#293e3d" >Auswahl: Unterstrich am Werkzeug, helle Eckmarken am Farbmuster; zusätzlich dauerhafter Werkzeug-/Farbstatus.</text><text x="48" y="839" font-family="PlexSans, sans-serif" font-size="16" fill="#293e3d" >Farbauswahl aktiviert Füllen, auch nach Hand/Radierer. Undo/Redo sind Aktionen ohne dauerhaften Auswahlzustand.</text><text x="48" y="866" font-family="PlexSans, sans-serif" font-size="16" fill="#293e3d" >Deaktivierte Navigation: Beispiel eines durch Pflicht-Flush blockierten Übergangs. Rückweg und Zustand bleiben erhalten.</text><text x="68" y="925" font-family="PlexSans, sans-serif" font-size="16" fill="#293e3d" >Tooltip · F-02 / vollständige Originalfolge, Spalte 20 · BP-1R-Quelldaten</text><text x="78" y="957" font-family="PlexSans, sans-serif" font-size="16.25" fill="#293e3d" style="fill:#6c9aab" data-clue-example="columns,19,0" stroke="#293e3d" stroke-width="0.55" paint-order="stroke fill">8</text><text x="112" y="957" font-family="PlexSans, sans-serif" font-size="16.25" fill="#293e3d" style="fill:#bd604a" data-clue-example="columns,19,1">1</text><text x="146" y="957" font-family="PlexSans, sans-serif" font-size="16.25" fill="#293e3d" style="fill:#6c9aab" data-clue-example="columns,19,2" stroke="#293e3d" stroke-width="0.55" paint-order="stroke fill">11</text><text x="180" y="957" font-family="PlexSans, sans-serif" font-size="16.25" fill="#293e3d" style="fill:#edca78" data-clue-example="columns,19,3" stroke="#293e3d" stroke-width="0.55" paint-order="stroke fill">2</text><text x="214" y="957" font-family="PlexSans, sans-serif" font-size="16.25" fill="#293e3d" style="fill:#bd604a" data-clue-example="columns,19,4">4</text><text x="248" y="957" font-family="PlexSans, sans-serif" font-size="16.25" fill="#293e3d" style="fill:#edca78" data-clue-example="columns,19,5" stroke="#293e3d" stroke-width="0.55" paint-order="stroke fill">4</text><text x="282" y="957" font-family="PlexSans, sans-serif" font-size="16.25" fill="#293e3d" style="fill:#bd604a" data-clue-example="columns,19,6">1</text><text x="316" y="957" font-family="PlexSans, sans-serif" font-size="16.25" fill="#293e3d" style="fill:#343f42" data-clue-example="columns,19,7">4</text><text x="350" y="957" font-family="PlexSans, sans-serif" font-size="16.25" fill="#293e3d" style="fill:#6c9aab" data-clue-example="columns,19,8" stroke="#293e3d" stroke-width="0.55" paint-order="stroke fill">3</text><text x="68" y="998" font-family="PlexSans, sans-serif" font-size="16" fill="#293e3d" >H1 · Zeile 2:</text><text x="180" y="998" font-family="PlexSans, sans-serif" font-size="16.25" fill="#293e3d" style="fill:#6c9aab" data-clue-example="rows,1,0" stroke="#293e3d" stroke-width="0.55" paint-order="stroke fill">38</text><path d="M178 992 h24" fill="none" stroke="#6c9aab" stroke-width="1" /><text x="230" y="998" font-family="PlexSans, sans-serif" font-size="16" fill="#293e3d" >bestehendes Beispiel aus z1-demo-1; kein Lösungsvergleich.</text><text x="72" y="1095" font-family="PlexSans, sans-serif" font-size="21" fill="#293e3d" font-weight="600">Speicherfehler</text><text x="72" y="1127" font-family="PlexSans, sans-serif" font-size="16" fill="#293e3d" >Temporäre Datei nicht schreibbar.</text><text x="72" y="1155" font-family="PlexSans, sans-serif" font-size="16" fill="#293e3d" >Pflicht-Flush fehlgeschlagen: Übergang bleibt blockiert.</text><text x="832" y="1095" font-family="PlexSans, sans-serif" font-size="21" fill="#293e3d" font-weight="600">Backup geladen</text><text x="832" y="1127" font-family="PlexSans, sans-serif" font-size="16" fill="#293e3d" >Primärstand beschädigt. Vor weiterem Speichern</text><text x="832" y="1155" font-family="PlexSans, sans-serif" font-size="16" fill="#293e3d" >Backup bewusst übernehmen. Schreibsperre bleibt aktiv.</text><text x="48" y="1245" font-family="PlexSans, sans-serif" font-size="16" fill="#293e3d" >Quellen: P1 §6; ui/main.gd und model/save_store.gd am Inputcommit. Beispielzustände, keine neue Meldungssemantik.</text><text x="48" y="1275" font-family="PlexSans, sans-serif" font-size="16" fill="#293e3d" >Tooltip der Aktion Füllen: „Füllen · links Farbe setzen, rechts leer markieren“. Treffer 44 × 44 px; Icon 26 × 26 px.</text>
</svg>
